<!DOCTYPE svg PUBLIC "-//W3C//DTD SVG 1.1//EN" "http://www.w3.org/Graphics/SVG/1.1/DTD/svg11.dtd">
<!-- Uploaded to: SVG Repo, www.svgrepo.com, Transformed by: SVG Repo Mixer Tools -->
<svg fill="#ffffff" height="256px" width="256px" version="1.1" id="Layer_1" xmlns="http://www.w3.org/2000/svg" xmlns:xlink="http://www.w3.org/1999/xlink" viewBox="0 0 512.011 512.011" xml:space="preserve" stroke="#ffffff">
<g id="SVGRepo_bgCarrier" stroke-width="0"/>
<g id="SVGRepo_tracerCarrier" stroke-linecap="round" stroke-linejoin="round"/>
<g id="SVGRepo_iconCarrier"> <g> <g> <path d="M507.185,269.508c0.154-0.188,0.286-0.387,0.433-0.578c0.277-0.362,0.556-0.721,0.81-1.101 c0.171-0.257,0.319-0.524,0.478-0.786c0.202-0.333,0.41-0.661,0.594-1.006c0.145-0.272,0.267-0.553,0.4-0.83 c0.169-0.353,0.344-0.701,0.494-1.064c0.109-0.265,0.196-0.536,0.294-0.804c0.142-0.387,0.289-0.771,0.409-1.168 c0.078-0.258,0.133-0.521,0.201-0.782c0.107-0.412,0.221-0.822,0.304-1.243c0.055-0.282,0.086-0.566,0.13-0.849 c0.063-0.403,0.135-0.803,0.175-1.213c0.043-0.442,0.051-0.885,0.067-1.328c0.009-0.253,0.038-0.5,0.038-0.754 s-0.029-0.502-0.038-0.754c-0.016-0.443-0.024-0.887-0.067-1.328c-0.04-0.41-0.112-0.81-0.175-1.213 c-0.044-0.283-0.074-0.568-0.13-0.849c-0.083-0.422-0.196-0.831-0.304-1.243c-0.068-0.261-0.123-0.523-0.201-0.782 c-0.12-0.397-0.267-0.781-0.409-1.168c-0.098-0.268-0.185-0.539-0.294-0.804c-0.15-0.363-0.325-0.712-0.494-1.064 c-0.133-0.277-0.255-0.558-0.4-0.83c-0.184-0.345-0.392-0.673-0.594-1.006c-0.159-0.262-0.306-0.529-0.478-0.786 c-0.253-0.38-0.533-0.739-0.81-1.101c-0.147-0.192-0.279-0.391-0.433-0.578c-0.456-0.556-0.937-1.09-1.446-1.598l-85.313-85.313 c-8.331-8.331-21.839-8.331-30.17,0s-8.331,21.839,0,30.17l48.915,48.915H338.654c-7.717-29.987-31.323-53.593-61.31-61.311 V72.839l48.913,48.913c8.331,8.331,21.839,8.331,30.17,0c8.331-8.331,8.331-21.839,0-30.17L271.116,6.271 c-0.507-0.508-1.04-0.99-1.596-1.445c-0.203-0.166-0.417-0.309-0.624-0.467c-0.347-0.264-0.69-0.531-1.052-0.774 c-0.275-0.184-0.561-0.342-0.842-0.512c-0.314-0.189-0.623-0.386-0.947-0.56c-0.295-0.158-0.6-0.291-0.901-0.434 c-0.328-0.156-0.652-0.32-0.99-0.459c-0.297-0.123-0.6-0.221-0.901-0.33c-0.354-0.128-0.705-0.264-1.067-0.373 c-0.304-0.092-0.614-0.159-0.921-0.237c-0.366-0.093-0.728-0.195-1.101-0.269c-0.36-0.071-0.724-0.113-1.088-0.166 c-0.324-0.047-0.644-0.108-0.973-0.14c-0.687-0.068-1.376-0.103-2.065-0.104c-0.012,0-0.024-0.002-0.037-0.002 c0,0-0.001,0-0.001,0c-0.704,0-1.407,0.037-2.108,0.106c-0.302,0.03-0.595,0.087-0.893,0.129 c-0.392,0.055-0.784,0.102-1.173,0.179c-0.342,0.068-0.674,0.163-1.01,0.247c-0.34,0.085-0.681,0.16-1.017,0.261 c-0.326,0.099-0.64,0.222-0.959,0.335c-0.339,0.121-0.68,0.233-1.014,0.371c-0.292,0.121-0.572,0.264-0.858,0.398 c-0.347,0.162-0.696,0.317-1.036,0.499c-0.265,0.142-0.515,0.304-0.773,0.457c-0.341,0.202-0.686,0.396-1.018,0.618 c-0.269,0.18-0.521,0.382-0.781,0.574c-0.3,0.221-0.605,0.431-0.896,0.67c-0.405,0.333-0.786,0.692-1.165,1.053 c-0.127,0.121-0.263,0.226-0.388,0.351L155.59,91.582c-8.331,8.331-8.331,21.839,0,30.17c8.331,8.331,21.839,8.331,30.17,0 l48.917-48.917v100.52c-29.988,7.716-53.595,31.323-61.313,61.31H72.847l48.913-48.913c8.331-8.331,8.331-21.839,0-30.17 c-8.331-8.331-21.839-8.331-30.17,0L6.365,240.807c-1.054,1.039-1.999,2.186-2.819,3.424c-0.057,0.086-0.104,0.176-0.16,0.263 c-0.322,0.501-0.629,1.01-0.909,1.538c-0.059,0.111-0.106,0.225-0.162,0.337c-0.259,0.511-0.507,1.028-0.725,1.562 c-0.039,0.095-0.068,0.192-0.105,0.287c-0.217,0.553-0.419,1.112-0.59,1.687c-0.017,0.056-0.027,0.114-0.044,0.17 C0.307,251.958,0,253.94,0,255.998c0,1.38,0.142,2.725,0.393,4.032c0.003,0.016,0.004,0.032,0.007,0.048 c0.116,0.598,0.265,1.183,0.43,1.762c0.025,0.088,0.042,0.178,0.069,0.266c0.16,0.537,0.351,1.06,0.552,1.578 c0.051,0.133,0.092,0.268,0.146,0.399c0.2,0.489,0.429,0.961,0.664,1.43c0.078,0.156,0.145,0.317,0.227,0.471 c0.249,0.468,0.525,0.918,0.806,1.364c0.091,0.145,0.171,0.295,0.266,0.439c0.35,0.526,0.727,1.032,1.12,1.524 c0.043,0.054,0.079,0.111,0.123,0.164c0.476,0.583,0.981,1.141,1.515,1.67l85.272,85.272c8.331,8.331,21.839,8.331,30.17,0 c8.331-8.331,8.331-21.839,0-30.17l-48.917-48.917h100.52c7.717,29.99,31.325,53.598,61.315,61.315v100.518l-48.917-48.917 c-8.331-8.331-21.839-8.331-30.17,0s-8.331,21.839,0,30.17l85.23,85.23c1.037,1.052,2.181,1.995,3.417,2.815 c0.095,0.063,0.195,0.115,0.291,0.177c0.493,0.316,0.994,0.619,1.514,0.895c0.11,0.058,0.223,0.105,0.334,0.161 c0.514,0.261,1.034,0.51,1.571,0.729c0.081,0.033,0.164,0.058,0.246,0.09c0.568,0.224,1.143,0.431,1.733,0.606 c0.026,0.008,0.053,0.013,0.079,0.02c1.907,0.559,3.919,0.872,6.007,0.872c2.798,0,5.463-0.553,7.911-1.533 c0.044-0.018,0.089-0.031,0.134-0.049c0.582-0.237,1.147-0.504,1.702-0.79c0.066-0.034,0.134-0.062,0.2-0.096 c0.58-0.306,1.142-0.641,1.689-0.998c0.037-0.024,0.077-0.045,0.114-0.069c1.253-0.829,2.413-1.785,3.462-2.853l85.205-85.205 c8.331-8.331,8.331-21.839,0-30.17c-8.331-8.331-21.839-8.331-30.17,0l-48.913,48.913V338.645 c29.987-7.718,53.593-31.324,61.31-61.311h100.518l-48.915,48.915c-8.331,8.331-8.331,21.839,0,30.17 c8.331,8.331,21.839,8.331,30.17,0l85.313-85.313C506.248,270.598,506.73,270.064,507.185,269.508z M256.009,298.667 c-23.567,0-42.667-19.099-42.667-42.667s19.099-42.667,42.667-42.667s42.667,19.099,42.667,42.667 S279.576,298.667,256.009,298.667z"/> </g> </g> </g>
</svg>